<mxfile host="app.diagrams.net" agent="Mozilla/5.0 (X11; Ubuntu; Linux x86_64; rv:134.0) Gecko/20100101 Firefox/134.0" version="26.0.16" pages="2">
  <diagram name="Classe" id="A79nVks5MfqFNbt--GoU">
    <mxGraphModel dx="1194" dy="581" grid="1" gridSize="10" guides="1" tooltips="1" connect="1" arrows="1" fold="1" page="1" pageScale="1" pageWidth="2339" pageHeight="3300" math="0" shadow="0">
      <root>
        <mxCell id="0" />
        <mxCell id="1" parent="0" />
        <mxCell id="-XF9noFZbYhsHM2uGvmb-1" value="&lt;i&gt;Animal&lt;/i&gt;" style="swimlane;fontStyle=1;align=center;verticalAlign=top;childLayout=stackLayout;horizontal=1;startSize=26;horizontalStack=0;resizeParent=1;resizeParentMax=0;resizeLast=0;collapsible=1;marginBottom=0;whiteSpace=wrap;html=1;" parent="1" vertex="1">
          <mxGeometry x="160" y="115" width="230" height="268" as="geometry" />
        </mxCell>
        <mxCell id="-XF9noFZbYhsHM2uGvmb-60" value="- name : string" style="text;strokeColor=none;fillColor=none;align=left;verticalAlign=top;spacingLeft=4;spacingRight=4;overflow=hidden;rotatable=0;points=[[0,0.5],[1,0.5]];portConstraint=eastwest;whiteSpace=wrap;html=1;" parent="-XF9noFZbYhsHM2uGvmb-1" vertex="1">
          <mxGeometry y="26" width="230" height="26" as="geometry" />
        </mxCell>
        <mxCell id="-XF9noFZbYhsHM2uGvmb-2" value="- hungerLevel : int" style="text;strokeColor=none;fillColor=none;align=left;verticalAlign=top;spacingLeft=4;spacingRight=4;overflow=hidden;rotatable=0;points=[[0,0.5],[1,0.5]];portConstraint=eastwest;whiteSpace=wrap;html=1;" parent="-XF9noFZbYhsHM2uGvmb-1" vertex="1">
          <mxGeometry y="52" width="230" height="26" as="geometry" />
        </mxCell>
        <mxCell id="-XF9noFZbYhsHM2uGvmb-10" value="- weight : double" style="text;strokeColor=none;fillColor=none;align=left;verticalAlign=top;spacingLeft=4;spacingRight=4;overflow=hidden;rotatable=0;points=[[0,0.5],[1,0.5]];portConstraint=eastwest;whiteSpace=wrap;html=1;" parent="-XF9noFZbYhsHM2uGvmb-1" vertex="1">
          <mxGeometry y="78" width="230" height="26" as="geometry" />
        </mxCell>
        <mxCell id="-XF9noFZbYhsHM2uGvmb-9" value="- temperature : int" style="text;strokeColor=none;fillColor=none;align=left;verticalAlign=top;spacingLeft=4;spacingRight=4;overflow=hidden;rotatable=0;points=[[0,0.5],[1,0.5]];portConstraint=eastwest;whiteSpace=wrap;html=1;" parent="-XF9noFZbYhsHM2uGvmb-1" vertex="1">
          <mxGeometry y="104" width="230" height="26" as="geometry" />
        </mxCell>
        <mxCell id="-XF9noFZbYhsHM2uGvmb-11" value="- heartRate : int" style="text;strokeColor=none;fillColor=none;align=left;verticalAlign=top;spacingLeft=4;spacingRight=4;overflow=hidden;rotatable=0;points=[[0,0.5],[1,0.5]];portConstraint=eastwest;whiteSpace=wrap;html=1;" parent="-XF9noFZbYhsHM2uGvmb-1" vertex="1">
          <mxGeometry y="130" width="230" height="26" as="geometry" />
        </mxCell>
        <mxCell id="-XF9noFZbYhsHM2uGvmb-3" value="" style="line;strokeWidth=1;fillColor=none;align=left;verticalAlign=middle;spacingTop=-1;spacingLeft=3;spacingRight=3;rotatable=0;labelPosition=right;points=[];portConstraint=eastwest;strokeColor=inherit;" parent="-XF9noFZbYhsHM2uGvmb-1" vertex="1">
          <mxGeometry y="156" width="230" height="8" as="geometry" />
        </mxCell>
        <mxCell id="-XF9noFZbYhsHM2uGvmb-4" value="+ eat() : void" style="text;strokeColor=none;fillColor=none;align=left;verticalAlign=top;spacingLeft=4;spacingRight=4;overflow=hidden;rotatable=0;points=[[0,0.5],[1,0.5]];portConstraint=eastwest;whiteSpace=wrap;html=1;" parent="-XF9noFZbYhsHM2uGvmb-1" vertex="1">
          <mxGeometry y="164" width="230" height="26" as="geometry" />
        </mxCell>
        <mxCell id="-XF9noFZbYhsHM2uGvmb-13" value="+ heal() : void" style="text;strokeColor=none;fillColor=none;align=left;verticalAlign=top;spacingLeft=4;spacingRight=4;overflow=hidden;rotatable=0;points=[[0,0.5],[1,0.5]];portConstraint=eastwest;whiteSpace=wrap;html=1;" parent="-XF9noFZbYhsHM2uGvmb-1" vertex="1">
          <mxGeometry y="190" width="230" height="26" as="geometry" />
        </mxCell>
        <mxCell id="-XF9noFZbYhsHM2uGvmb-15" value="+ displayStatus : string" style="text;strokeColor=none;fillColor=none;align=left;verticalAlign=top;spacingLeft=4;spacingRight=4;overflow=hidden;rotatable=0;points=[[0,0.5],[1,0.5]];portConstraint=eastwest;whiteSpace=wrap;html=1;" parent="-XF9noFZbYhsHM2uGvmb-1" vertex="1">
          <mxGeometry y="216" width="230" height="26" as="geometry" />
        </mxCell>
        <mxCell id="-XF9noFZbYhsHM2uGvmb-16" value="+ accept(Visitor) : void" style="text;strokeColor=none;fillColor=none;align=left;verticalAlign=top;spacingLeft=4;spacingRight=4;overflow=hidden;rotatable=0;points=[[0,0.5],[1,0.5]];portConstraint=eastwest;whiteSpace=wrap;html=1;" parent="-XF9noFZbYhsHM2uGvmb-1" vertex="1">
          <mxGeometry y="242" width="230" height="26" as="geometry" />
        </mxCell>
        <mxCell id="-XF9noFZbYhsHM2uGvmb-17" value="CareCenter" style="swimlane;fontStyle=1;align=center;verticalAlign=top;childLayout=stackLayout;horizontal=1;startSize=26;horizontalStack=0;resizeParent=1;resizeParentMax=0;resizeLast=0;collapsible=1;marginBottom=0;whiteSpace=wrap;html=1;" parent="1" vertex="1">
          <mxGeometry x="630" y="206" width="230" height="86" as="geometry" />
        </mxCell>
        <mxCell id="-XF9noFZbYhsHM2uGvmb-22" value="" style="line;strokeWidth=1;fillColor=none;align=left;verticalAlign=middle;spacingTop=-1;spacingLeft=3;spacingRight=3;rotatable=0;labelPosition=right;points=[];portConstraint=eastwest;strokeColor=inherit;" parent="-XF9noFZbYhsHM2uGvmb-17" vertex="1">
          <mxGeometry y="26" width="230" height="8" as="geometry" />
        </mxCell>
        <mxCell id="gPfREQUR988kVqyTrd-e-1" value="+ addAnimal(Animal) : void" style="text;strokeColor=none;fillColor=none;align=left;verticalAlign=top;spacingLeft=4;spacingRight=4;overflow=hidden;rotatable=0;points=[[0,0.5],[1,0.5]];portConstraint=eastwest;whiteSpace=wrap;html=1;" vertex="1" parent="-XF9noFZbYhsHM2uGvmb-17">
          <mxGeometry y="34" width="230" height="26" as="geometry" />
        </mxCell>
        <mxCell id="-XF9noFZbYhsHM2uGvmb-59" value="+ check(Visitor) : void" style="text;strokeColor=none;fillColor=none;align=left;verticalAlign=top;spacingLeft=4;spacingRight=4;overflow=hidden;rotatable=0;points=[[0,0.5],[1,0.5]];portConstraint=eastwest;whiteSpace=wrap;html=1;" parent="-XF9noFZbYhsHM2uGvmb-17" vertex="1">
          <mxGeometry y="60" width="230" height="26" as="geometry" />
        </mxCell>
        <mxCell id="-XF9noFZbYhsHM2uGvmb-47" style="edgeStyle=orthogonalEdgeStyle;rounded=0;orthogonalLoop=1;jettySize=auto;html=1;exitX=0.5;exitY=0;exitDx=0;exitDy=0;" parent="1" source="-XF9noFZbYhsHM2uGvmb-28" target="-XF9noFZbYhsHM2uGvmb-17" edge="1">
          <mxGeometry relative="1" as="geometry" />
        </mxCell>
        <mxCell id="-XF9noFZbYhsHM2uGvmb-67" value="0..*" style="edgeLabel;html=1;align=center;verticalAlign=middle;resizable=0;points=[];" parent="-XF9noFZbYhsHM2uGvmb-47" vertex="1" connectable="0">
          <mxGeometry x="-0.8765" y="1" relative="1" as="geometry">
            <mxPoint x="-19" y="-1" as="offset" />
          </mxGeometry>
        </mxCell>
        <mxCell id="-XF9noFZbYhsHM2uGvmb-57" style="edgeStyle=orthogonalEdgeStyle;rounded=0;orthogonalLoop=1;jettySize=auto;html=1;exitX=0.5;exitY=1;exitDx=0;exitDy=0;endArrow=block;endFill=0;" parent="1" source="-XF9noFZbYhsHM2uGvmb-28" target="-XF9noFZbYhsHM2uGvmb-51" edge="1">
          <mxGeometry relative="1" as="geometry" />
        </mxCell>
        <mxCell id="-XF9noFZbYhsHM2uGvmb-28" value="CaregiverVisitor" style="swimlane;fontStyle=1;align=center;verticalAlign=top;childLayout=stackLayout;horizontal=1;startSize=26;horizontalStack=0;resizeParent=1;resizeParentMax=0;resizeLast=0;collapsible=1;marginBottom=0;whiteSpace=wrap;html=1;" parent="1" vertex="1">
          <mxGeometry x="500" y="440" width="180" height="60" as="geometry" />
        </mxCell>
        <mxCell id="-XF9noFZbYhsHM2uGvmb-30" value="" style="line;strokeWidth=1;fillColor=none;align=left;verticalAlign=middle;spacingTop=-1;spacingLeft=3;spacingRight=3;rotatable=0;labelPosition=right;points=[];portConstraint=eastwest;strokeColor=inherit;" parent="-XF9noFZbYhsHM2uGvmb-28" vertex="1">
          <mxGeometry y="26" width="180" height="8" as="geometry" />
        </mxCell>
        <mxCell id="-XF9noFZbYhsHM2uGvmb-32" value="+ feed(Animal) : void" style="text;strokeColor=none;fillColor=none;align=left;verticalAlign=top;spacingLeft=4;spacingRight=4;overflow=hidden;rotatable=0;points=[[0,0.5],[1,0.5]];portConstraint=eastwest;whiteSpace=wrap;html=1;" parent="-XF9noFZbYhsHM2uGvmb-28" vertex="1">
          <mxGeometry y="34" width="180" height="26" as="geometry" />
        </mxCell>
        <mxCell id="-XF9noFZbYhsHM2uGvmb-48" style="edgeStyle=orthogonalEdgeStyle;rounded=0;orthogonalLoop=1;jettySize=auto;html=1;exitX=0.5;exitY=0;exitDx=0;exitDy=0;" parent="1" source="-XF9noFZbYhsHM2uGvmb-36" target="-XF9noFZbYhsHM2uGvmb-17" edge="1">
          <mxGeometry relative="1" as="geometry" />
        </mxCell>
        <mxCell id="-XF9noFZbYhsHM2uGvmb-65" value="1..1" style="edgeLabel;html=1;align=center;verticalAlign=middle;resizable=0;points=[];" parent="-XF9noFZbYhsHM2uGvmb-48" vertex="1" connectable="0">
          <mxGeometry x="0.747" y="-3" relative="1" as="geometry">
            <mxPoint x="22" y="-8" as="offset" />
          </mxGeometry>
        </mxCell>
        <mxCell id="-XF9noFZbYhsHM2uGvmb-66" value="0..*" style="edgeLabel;html=1;align=center;verticalAlign=middle;resizable=0;points=[];" parent="-XF9noFZbYhsHM2uGvmb-48" vertex="1" connectable="0">
          <mxGeometry x="-0.8885" y="-3" relative="1" as="geometry">
            <mxPoint x="17" as="offset" />
          </mxGeometry>
        </mxCell>
        <mxCell id="-XF9noFZbYhsHM2uGvmb-58" style="edgeStyle=orthogonalEdgeStyle;rounded=0;orthogonalLoop=1;jettySize=auto;html=1;exitX=0.5;exitY=1;exitDx=0;exitDy=0;endArrow=block;endFill=0;" parent="1" source="-XF9noFZbYhsHM2uGvmb-36" target="-XF9noFZbYhsHM2uGvmb-51" edge="1">
          <mxGeometry relative="1" as="geometry" />
        </mxCell>
        <mxCell id="-XF9noFZbYhsHM2uGvmb-36" value="VetVisitor" style="swimlane;fontStyle=1;align=center;verticalAlign=top;childLayout=stackLayout;horizontal=1;startSize=26;horizontalStack=0;resizeParent=1;resizeParentMax=0;resizeLast=0;collapsible=1;marginBottom=0;whiteSpace=wrap;html=1;" parent="1" vertex="1">
          <mxGeometry x="800" y="440" width="180" height="60" as="geometry" />
        </mxCell>
        <mxCell id="-XF9noFZbYhsHM2uGvmb-38" value="" style="line;strokeWidth=1;fillColor=none;align=left;verticalAlign=middle;spacingTop=-1;spacingLeft=3;spacingRight=3;rotatable=0;labelPosition=right;points=[];portConstraint=eastwest;strokeColor=inherit;" parent="-XF9noFZbYhsHM2uGvmb-36" vertex="1">
          <mxGeometry y="26" width="180" height="8" as="geometry" />
        </mxCell>
        <mxCell id="-XF9noFZbYhsHM2uGvmb-40" value="+ heal(Animal) : void" style="text;strokeColor=none;fillColor=none;align=left;verticalAlign=top;spacingLeft=4;spacingRight=4;overflow=hidden;rotatable=0;points=[[0,0.5],[1,0.5]];portConstraint=eastwest;whiteSpace=wrap;html=1;" parent="-XF9noFZbYhsHM2uGvmb-36" vertex="1">
          <mxGeometry y="34" width="180" height="26" as="geometry" />
        </mxCell>
        <mxCell id="-XF9noFZbYhsHM2uGvmb-44" style="edgeStyle=orthogonalEdgeStyle;rounded=0;orthogonalLoop=1;jettySize=auto;html=1;endArrow=block;endFill=1;" parent="1" source="-XF9noFZbYhsHM2uGvmb-17" target="-XF9noFZbYhsHM2uGvmb-1" edge="1">
          <mxGeometry relative="1" as="geometry">
            <mxPoint x="630" y="223" as="sourcePoint" />
          </mxGeometry>
        </mxCell>
        <mxCell id="-XF9noFZbYhsHM2uGvmb-45" value="0..1" style="edgeLabel;html=1;align=center;verticalAlign=middle;resizable=0;points=[];" parent="-XF9noFZbYhsHM2uGvmb-44" vertex="1" connectable="0">
          <mxGeometry x="-0.8417" y="1" relative="1" as="geometry">
            <mxPoint y="-14" as="offset" />
          </mxGeometry>
        </mxCell>
        <mxCell id="-XF9noFZbYhsHM2uGvmb-46" value="0..*" style="edgeLabel;html=1;align=center;verticalAlign=middle;resizable=0;points=[];" parent="-XF9noFZbYhsHM2uGvmb-44" vertex="1" connectable="0">
          <mxGeometry x="0.775" y="2" relative="1" as="geometry">
            <mxPoint x="-7" y="-21" as="offset" />
          </mxGeometry>
        </mxCell>
        <mxCell id="-XF9noFZbYhsHM2uGvmb-51" value="&lt;i&gt;Visitor&lt;/i&gt;" style="swimlane;fontStyle=1;align=center;verticalAlign=top;childLayout=stackLayout;horizontal=1;startSize=26;horizontalStack=0;resizeParent=1;resizeParentMax=0;resizeLast=0;collapsible=1;marginBottom=0;whiteSpace=wrap;html=1;" parent="1" vertex="1">
          <mxGeometry x="655" y="660" width="180" height="86" as="geometry" />
        </mxCell>
        <mxCell id="-XF9noFZbYhsHM2uGvmb-52" value="- name : string" style="text;strokeColor=none;fillColor=none;align=left;verticalAlign=top;spacingLeft=4;spacingRight=4;overflow=hidden;rotatable=0;points=[[0,0.5],[1,0.5]];portConstraint=eastwest;whiteSpace=wrap;html=1;" parent="-XF9noFZbYhsHM2uGvmb-51" vertex="1">
          <mxGeometry y="26" width="180" height="26" as="geometry" />
        </mxCell>
        <mxCell id="-XF9noFZbYhsHM2uGvmb-53" value="" style="line;strokeWidth=1;fillColor=none;align=left;verticalAlign=middle;spacingTop=-1;spacingLeft=3;spacingRight=3;rotatable=0;labelPosition=right;points=[];portConstraint=eastwest;strokeColor=inherit;" parent="-XF9noFZbYhsHM2uGvmb-51" vertex="1">
          <mxGeometry y="52" width="180" height="8" as="geometry" />
        </mxCell>
        <mxCell id="-XF9noFZbYhsHM2uGvmb-54" value="+ visit(Animal) : void" style="text;strokeColor=none;fillColor=none;align=left;verticalAlign=top;spacingLeft=4;spacingRight=4;overflow=hidden;rotatable=0;points=[[0,0.5],[1,0.5]];portConstraint=eastwest;whiteSpace=wrap;html=1;" parent="-XF9noFZbYhsHM2uGvmb-51" vertex="1">
          <mxGeometry y="60" width="180" height="26" as="geometry" />
        </mxCell>
      </root>
    </mxGraphModel>
  </diagram>
  <diagram id="KoC-sN1VrkYhzAfiGjjr" name="Séquence">
    <mxGraphModel dx="954" dy="581" grid="1" gridSize="10" guides="1" tooltips="1" connect="1" arrows="1" fold="1" page="1" pageScale="1" pageWidth="2339" pageHeight="3300" math="0" shadow="0">
      <root>
        <mxCell id="0" />
        <mxCell id="1" parent="0" />
      </root>
    </mxGraphModel>
  </diagram>
</mxfile>
